<svg xmlns="http://www.w3.org/2000/svg" width="1920" height="1080"><path d="M988,555L1022,717L1216,589Z" fill="#ffffff" stroke="#ffffff" stroke-width="1.51"/><path d="M1022,717L1203,781L1216,589Z" fill="#ffffff" stroke="#ffffff" stroke-width="1.51"/><path d="M1216,589L1234,403L988,555Z" fill="#ffffff" stroke="#ffffff" stroke-width="1.51"/><path d="M1203,781L1330,571L1216,589Z" fill="#ffffff" stroke="#ffffff" stroke-width="1.51"/><path d="M1330,571L1234,403L1216,589Z" fill="#ffffff" stroke="#ffffff" stroke-width="1.51"/><path d="M988,555L746,693L1022,717Z" fill="#ffffff" stroke="#ffffff" stroke-width="1.51"/><path d="M942,286L826,494L988,555Z" fill="#ffffff" stroke="#ffffff" stroke-width="1.51"/><path d="M1203,781L1386,815L1330,571Z" fill="#ffffff" stroke="#ffffff" stroke-width="1.51"/><path d="M1022,717L1005,962L1203,781Z" fill="#ffffff" stroke="#ffffff" stroke-width="1.51"/><path d="M1203,781L1361,935L1386,815Z" fill="#ffffff" stroke="#ffffff" stroke-width="1.51"/><path d="M746,693L1005,962L1022,717Z" fill="#ffffff" stroke="#ffffff" stroke-width="1.51"/><path d="M826,494L746,693L988,555Z" fill="#ffffff" stroke="#ffffff" stroke-width="1.51"/><path d="M1234,403L942,286L988,555Z" fill="#ffffff" stroke="#ffffff" stroke-width="1.51"/><path d="M1330,571L1359,374L1234,403Z" fill="#ffffff" stroke="#ffffff" stroke-width="1.51"/><path d="M1523,364L1359,374L1330,571Z" fill="#ffffff" stroke="#ffffff" stroke-width="1.51"/><path d="M975,164L942,286L1225,138Z" fill="#ffffff" stroke="#ffffff" stroke-width="1.51"/><path d="M1005,962L1097,1016L1203,781Z" fill="#ffffff" stroke="#ffffff" stroke-width="1.51"/><path d="M1097,1016L1361,935L1203,781Z" fill="#ffffff" stroke="#ffffff" stroke-width="1.51"/><path d="M1361,935L1516,779L1386,815Z" fill="#ffffff" stroke="#ffffff" stroke-width="1.51"/><path d="M1386,815L1516,779L1330,571Z" fill="#ffffff" stroke="#ffffff" stroke-width="1.51"/><path d="M942,286L723,335L826,494Z" fill="#ffffff" stroke="#ffffff" stroke-width="1.51"/><path d="M826,494L581,540L746,693Z" fill="#ffffff" stroke="#ffffff" stroke-width="1.51"/><path d="M942,286L681,194L723,335Z" fill="#ffffff" stroke="#ffffff" stroke-width="1.51"/><path d="M1225,138L942,286L1234,403Z" fill="#ffffff" stroke="#ffffff" stroke-width="1.51"/><path d="M1516,779L1583,568L1330,571Z" fill="#ffffff" stroke="#ffffff" stroke-width="1.51"/><path d="M1315,143L1225,138L1234,403Z" fill="#ffffff" stroke="#ffffff" stroke-width="1.51"/><path d="M1315,143L1234,403L1359,374Z" fill="#ffffff" stroke="#ffffff" stroke-width="1.51"/><path d="M1583,568L1523,364L1330,571Z" fill="#ffffff" stroke="#ffffff" stroke-width="1.51"/><path d="M723,335L581,540L826,494Z" fill="#ffffff" stroke="#ffffff" stroke-width="1.51"/><path d="M746,693L723,1009L1005,962Z" fill="#ffffff" stroke="#ffffff" stroke-width="1.51"/><path d="M1523,364L1315,143L1359,374Z" fill="#ffffff" stroke="#ffffff" stroke-width="1.51"/><path d="M581,540L573,693L746,693Z" fill="#ffffff" stroke="#ffffff" stroke-width="1.51"/><path d="M573,693L723,1009L746,693Z" fill="#ffffff" stroke="#ffffff" stroke-width="1.51"/><path d="M1005,962L933,1172L1097,1016Z" fill="#ddc3fc" stroke="#ddc3fc" stroke-width="1.51"/><path d="M723,1009L933,1172L1005,962Z" fill="#e0c7fd" stroke="#e0c7fd" stroke-width="1.51"/><path d="M1435,1224L1569,999L1361,935Z" fill="#dbbffc" stroke="#dbbffc" stroke-width="1.51"/><path d="M723,335L552,320L581,540Z" fill="#ffffff" stroke="#ffffff" stroke-width="1.51"/><path d="M975,164L681,194L942,286Z" fill="#ffffff" stroke="#ffffff" stroke-width="1.51"/><path d="M573,138L681,194L778,-83Z" fill="#ffffff" stroke="#ffffff" stroke-width="1.51"/><path d="M1361,935L1569,999L1516,779Z" fill="#ffffff" stroke="#ffffff" stroke-width="1.51"/><path d="M1516,779L1742,604L1583,568Z" fill="#ffffff" stroke="#ffffff" stroke-width="1.51"/><path d="M1174,1223L1361,935L1097,1016Z" fill="#d6b6fc" stroke="#d6b6fc" stroke-width="1.51"/><path d="M933,1172L1174,1223L1097,1016Z" fill="#bf94f9" stroke="#bf94f9" stroke-width="1.51"/><path d="M681,194L552,320L723,335Z" fill="#ffffff" stroke="#ffffff" stroke-width="1.51"/><path d="M581,540L371,721L573,693Z" fill="#ffffff" stroke="#ffffff" stroke-width="1.51"/><path d="M723,1009L685,1209L933,1172Z" fill="#bf94f9" stroke="#bf94f9" stroke-width="1.51"/><path d="M573,693L596,1018L723,1009Z" fill="#ffffff" stroke="#ffffff" stroke-width="1.51"/><path d="M1583,568L1734,313L1523,364Z" fill="#ffffff" stroke="#ffffff" stroke-width="1.51"/><path d="M1779,676L1742,604L1516,779Z" fill="#ffffff" stroke="#ffffff" stroke-width="1.51"/><path d="M1849,942L1779,676L1516,779Z" fill="#ffffff" stroke="#ffffff" stroke-width="1.51"/><path d="M1523,364L1546,97L1315,143Z" fill="#ffffff" stroke="#ffffff" stroke-width="1.51"/><path d="M1315,143L1397,-27L1225,138Z" fill="#ffffff" stroke="#ffffff" stroke-width="1.51"/><path d="M778,-83L681,194L975,164Z" fill="#ffffff" stroke="#ffffff" stroke-width="1.51"/><path d="M1734,313L1546,97L1523,364Z" fill="#ffffff" stroke="#ffffff" stroke-width="1.51"/><path d="M1734,313L1583,568L1742,604Z" fill="#ffffff" stroke="#ffffff" stroke-width="1.51"/><path d="M1569,999L1849,942L1516,779Z" fill="#ffffff" stroke="#ffffff" stroke-width="1.51"/><path d="M1174,1223L1435,1224L1361,935Z" fill="#bf94f9" stroke="#bf94f9" stroke-width="1.51"/><path d="M2000,584L1734,313L1742,604Z" fill="#f3e8fe" stroke="#f3e8fe" stroke-width="1.51"/><path d="M681,194L573,138L552,320Z" fill="#ffffff" stroke="#ffffff" stroke-width="1.51"/><path d="M1011,-90L975,164L1225,138Z" fill="#ffffff" stroke="#ffffff" stroke-width="1.51"/><path d="M1546,97L1397,-27L1315,143Z" fill="#ffffff" stroke="#ffffff" stroke-width="1.51"/><path d="M1218,-142L1011,-90L1225,138Z" fill="#ffffff" stroke="#ffffff" stroke-width="1.51"/><path d="M596,1018L685,1209L723,1009Z" fill="#c196fa" stroke="#c196fa" stroke-width="1.51"/><path d="M937,1410L1167,1382L1174,1223Z" fill="#bf94f9" stroke="#bf94f9" stroke-width="1.51"/><path d="M573,693L389,953L596,1018Z" fill="#ffffff" stroke="#ffffff" stroke-width="1.51"/><path d="M596,1018L517,1193L685,1209Z" fill="#bf94f9" stroke="#bf94f9" stroke-width="1.51"/><path d="M315,570L371,721L581,540Z" fill="#ffffff" stroke="#ffffff" stroke-width="1.51"/><path d="M391,390L581,540L552,320Z" fill="#ffffff" stroke="#ffffff" stroke-width="1.51"/><path d="M573,138L391,390L552,320Z" fill="#ffffff" stroke="#ffffff" stroke-width="1.51"/><path d="M1435,1224L1555,1231L1569,999Z" fill="#bf94f9" stroke="#bf94f9" stroke-width="1.51"/><path d="M1632,1428L1555,1231L1435,1224Z" fill="#bf94f9" stroke="#bf94f9" stroke-width="1.51"/><path d="M1174,1223L1302,1359L1435,1224Z" fill="#bf94f9" stroke="#bf94f9" stroke-width="1.51"/><path d="M937,1410L1174,1223L933,1172Z" fill="#bf94f9" stroke="#bf94f9" stroke-width="1.51"/><path d="M1011,-90L778,-83L975,164Z" fill="#ffffff" stroke="#ffffff" stroke-width="1.51"/><path d="M1397,-27L1218,-142L1225,138Z" fill="#ffffff" stroke="#ffffff" stroke-width="1.51"/><path d="M1011,-90L779,-243L778,-83Z" fill="#ffffff" stroke="#ffffff" stroke-width="1.51"/><path d="M1167,1382L1302,1359L1174,1223Z" fill="#bf94f9" stroke="#bf94f9" stroke-width="1.51"/><path d="M685,1209L825,1349L933,1172Z" fill="#bf94f9" stroke="#bf94f9" stroke-width="1.51"/><path d="M391,390L315,570L581,540Z" fill="#ffffff" stroke="#ffffff" stroke-width="1.51"/><path d="M371,721L389,953L573,693Z" fill="#ffffff" stroke="#ffffff" stroke-width="1.51"/><path d="M685,1209L620,1433L825,1349Z" fill="#bf94f9" stroke="#bf94f9" stroke-width="1.51"/><path d="M188,950L389,953L371,721Z" fill="#ffffff" stroke="#ffffff" stroke-width="1.51"/><path d="M825,1349L937,1410L933,1172Z" fill="#bf94f9" stroke="#bf94f9" stroke-width="1.51"/><path d="M389,953L517,1193L596,1018Z" fill="#d9bbfc" stroke="#d9bbfc" stroke-width="1.51"/><path d="M825,1349L620,1433L937,1410Z" fill="#bf94f9" stroke="#bf94f9" stroke-width="1.51"/><path d="M1779,676L1940,674L1742,604Z" fill="#f5ecff" stroke="#f5ecff" stroke-width="1.51"/><path d="M1833,1166L1849,942L1569,999Z" fill="#ebdafe" stroke="#ebdafe" stroke-width="1.51"/><path d="M1849,942L1940,674L1779,676Z" fill="#e3cdfd" stroke="#e3cdfd" stroke-width="1.51"/><path d="M1546,97L1549,-118L1397,-27Z" fill="#ffffff" stroke="#ffffff" stroke-width="1.51"/><path d="M1397,-27L1419,-339L1218,-142Z" fill="#ffffff" stroke="#ffffff" stroke-width="1.51"/><path d="M1779,-120L1549,-118L1546,97Z" fill="#ffffff" stroke="#ffffff" stroke-width="1.51"/><path d="M1855,198L1546,97L1734,313Z" fill="#ffffff" stroke="#ffffff" stroke-width="1.51"/><path d="M2050,334L1855,198L1734,313Z" fill="#d6b7fc" stroke="#d6b7fc" stroke-width="1.51"/><path d="M280,61L181,293L391,390Z" fill="#ffffff" stroke="#ffffff" stroke-width="1.51"/><path d="M391,390L180,477L315,570Z" fill="#ffffff" stroke="#ffffff" stroke-width="1.51"/><path d="M778,-83L498,-38L573,138Z" fill="#ffffff" stroke="#ffffff" stroke-width="1.51"/><path d="M1419,-339L1098,-276L1218,-142Z" fill="#ffffff" stroke="#ffffff" stroke-width="1.51"/><path d="M1218,-142L1098,-276L1011,-90Z" fill="#ffffff" stroke="#ffffff" stroke-width="1.51"/><path d="M778,-83L779,-243L498,-38Z" fill="#ffffff" stroke="#ffffff" stroke-width="1.51"/><path d="M1940,674L2000,584L1742,604Z" fill="#ceabfb" stroke="#ceabfb" stroke-width="1.51"/><path d="M2130,730L2000,584L1940,674Z" fill="#bf94f9" stroke="#bf94f9" stroke-width="1.51"/><path d="M1098,-276L989,-292L1011,-90Z" fill="#ffffff" stroke="#ffffff" stroke-width="1.51"/><path d="M989,-292L779,-243L1011,-90Z" fill="#ffffff" stroke="#ffffff" stroke-width="1.51"/><path d="M1555,1231L1833,1166L1569,999Z" fill="#bf94f9" stroke="#bf94f9" stroke-width="1.51"/><path d="M1849,942L2019,1013L1940,674Z" fill="#bf94f9" stroke="#bf94f9" stroke-width="1.51"/><path d="M1729,1312L1833,1166L1555,1231Z" fill="#bf94f9" stroke="#bf94f9" stroke-width="1.51"/><path d="M315,570L164,752L371,721Z" fill="#ffffff" stroke="#ffffff" stroke-width="1.51"/><path d="M181,293L180,477L391,390Z" fill="#ffffff" stroke="#ffffff" stroke-width="1.51"/><path d="M1632,1428L1435,1224L1302,1359Z" fill="#bf94f9" stroke="#bf94f9" stroke-width="1.51"/><path d="M1632,1428L1729,1312L1555,1231Z" fill="#bf94f9" stroke="#bf94f9" stroke-width="1.51"/><path d="M389,953L310,1150L517,1193Z" fill="#bf94f9" stroke="#bf94f9" stroke-width="1.51"/><path d="M180,477L164,752L315,570Z" fill="#ffffff" stroke="#ffffff" stroke-width="1.51"/><path d="M517,1193L620,1433L685,1209Z" fill="#bf94f9" stroke="#bf94f9" stroke-width="1.51"/><path d="M308,1376L620,1433L517,1193Z" fill="#bf94f9" stroke="#bf94f9" stroke-width="1.51"/><path d="M188,950L310,1150L389,953Z" fill="#fbf6ff" stroke="#fbf6ff" stroke-width="1.51"/><path d="M164,752L188,950L371,721Z" fill="#ffffff" stroke="#ffffff" stroke-width="1.51"/><path d="M180,477L-96,745L164,752Z" fill="#ffffff" stroke="#ffffff" stroke-width="1.51"/><path d="M280,61L391,390L573,138Z" fill="#ffffff" stroke="#ffffff" stroke-width="1.51"/><path d="M620,1433L1632,1428L937,1410Z" fill="#bf94f9" stroke="#bf94f9" stroke-width="1.51"/><path d="M937,1410L1632,1428L1167,1382Z" fill="#bf94f9" stroke="#bf94f9" stroke-width="1.51"/><path d="M1167,1382L1632,1428L1302,1359Z" fill="#bf94f9" stroke="#bf94f9" stroke-width="1.51"/><path d="M498,-38L280,61L573,138Z" fill="#ffffff" stroke="#ffffff" stroke-width="1.51"/><path d="M348,-48L280,61L498,-38Z" fill="#ffffff" stroke="#ffffff" stroke-width="1.51"/><path d="M2000,584L2050,334L1734,313Z" fill="#bf94f9" stroke="#bf94f9" stroke-width="1.51"/><path d="M1855,198L1779,-120L1546,97Z" fill="#ffffff" stroke="#ffffff" stroke-width="1.51"/><path d="M413,-264L348,-48L498,-38Z" fill="#ffffff" stroke="#ffffff" stroke-width="1.51"/><path d="M2055,1211L1833,1166L2017,1331Z" fill="#6320ee" stroke="#6320ee" stroke-width="1.51"/><path d="M2055,1211L2019,1013L1833,1166Z" fill="#6320ee" stroke="#6320ee" stroke-width="1.51"/><path d="M1833,1166L2019,1013L1849,942Z" fill="#ac79f7" stroke="#ac79f7" stroke-width="1.51"/><path d="M2000,584L2231,596L2050,334Z" fill="#bf94f9" stroke="#bf94f9" stroke-width="1.51"/><path d="M1549,-118L1419,-339L1397,-27Z" fill="#ffffff" stroke="#ffffff" stroke-width="1.51"/><path d="M2018,-22L1779,-120L1855,198Z" fill="#d4b4fb" stroke="#d4b4fb" stroke-width="1.51"/><path d="M1098,-276L1419,-339L989,-292Z" fill="#ffffff" stroke="#ffffff" stroke-width="1.51"/><path d="M1532,-331L1419,-339L1549,-118Z" fill="#ffffff" stroke="#ffffff" stroke-width="1.51"/><path d="M2050,334L2002,151L1855,198Z" fill="#bf94f9" stroke="#bf94f9" stroke-width="1.51"/><path d="M2019,1013L2130,730L1940,674Z" fill="#bf94f9" stroke="#bf94f9" stroke-width="1.51"/><path d="M1763,-320L1532,-331L1549,-118Z" fill="#ffffff" stroke="#ffffff" stroke-width="1.51"/><path d="M131,1164L308,1376L310,1150Z" fill="#bf94f9" stroke="#bf94f9" stroke-width="1.51"/><path d="M310,1150L308,1376L517,1193Z" fill="#bf94f9" stroke="#bf94f9" stroke-width="1.51"/><path d="M1419,-339L527,-319L989,-292Z" fill="#ffffff" stroke="#ffffff" stroke-width="1.51"/><path d="M989,-292L527,-319L779,-243Z" fill="#ffffff" stroke="#ffffff" stroke-width="1.51"/><path d="M779,-243L527,-319L498,-38Z" fill="#ffffff" stroke="#ffffff" stroke-width="1.51"/><path d="M-31,898L188,950L164,752Z" fill="#ffffff" stroke="#ffffff" stroke-width="1.51"/><path d="M-31,898L131,1164L188,950Z" fill="#ffffff" stroke="#ffffff" stroke-width="1.51"/><path d="M188,950L131,1164L310,1150Z" fill="#bf94f9" stroke="#bf94f9" stroke-width="1.51"/><path d="M527,-319L413,-264L498,-38Z" fill="#ffffff" stroke="#ffffff" stroke-width="1.51"/><path d="M78,-61L65,184L280,61Z" fill="#ffffff" stroke="#ffffff" stroke-width="1.51"/><path d="M280,61L65,184L181,293Z" fill="#ffffff" stroke="#ffffff" stroke-width="1.51"/><path d="M181,293L-34,400L180,477Z" fill="#ffffff" stroke="#ffffff" stroke-width="1.51"/><path d="M78,-61L280,61L348,-48Z" fill="#ffffff" stroke="#ffffff" stroke-width="1.51"/><path d="M1779,-120L1763,-320L1549,-118Z" fill="#ffffff" stroke="#ffffff" stroke-width="1.51"/><path d="M2002,151L2018,-22L1855,198Z" fill="#bf94f9" stroke="#bf94f9" stroke-width="1.51"/><path d="M2138,157L2018,-22L2002,151Z" fill="#bf94f9" stroke="#bf94f9" stroke-width="1.51"/><path d="M2138,157L2002,151L2050,334Z" fill="#bf94f9" stroke="#bf94f9" stroke-width="1.51"/><path d="M2017,1331L1833,1166L1729,1312Z" fill="#975ff4" stroke="#975ff4" stroke-width="1.51"/><path d="M2019,1013L2207,909L2130,730Z" fill="#bf94f9" stroke="#bf94f9" stroke-width="1.51"/><path d="M2130,730L2231,596L2000,584Z" fill="#bf94f9" stroke="#bf94f9" stroke-width="1.51"/><path d="M2450,732L2231,596L2130,730Z" fill="#bf94f9" stroke="#bf94f9" stroke-width="1.51"/><path d="M2265,334L2138,157L2050,334Z" fill="#bf94f9" stroke="#bf94f9" stroke-width="1.51"/><path d="M2180,1228L2207,909L2019,1013Z" fill="#9258f3" stroke="#9258f3" stroke-width="1.51"/><path d="M65,184L-34,400L181,293Z" fill="#ffffff" stroke="#ffffff" stroke-width="1.51"/><path d="M1963,-248L1763,-320L1779,-120Z" fill="#eedffe" stroke="#eedffe" stroke-width="1.51"/><path d="M1532,-331L2138,-338L1419,-339Z" fill="#ffffff" stroke="#ffffff" stroke-width="1.51"/><path d="M-96,745L-31,898L164,752Z" fill="#ffffff" stroke="#ffffff" stroke-width="1.51"/><path d="M2055,1211L2180,1228L2019,1013Z" fill="#6320ee" stroke="#6320ee" stroke-width="1.51"/><path d="M1632,1428L2017,1331L1729,1312Z" fill="#bf94f9" stroke="#bf94f9" stroke-width="1.51"/><path d="M-128,468L-96,745L180,477Z" fill="#ffffff" stroke="#ffffff" stroke-width="1.51"/><path d="M2231,596L2265,334L2050,334Z" fill="#bf94f9" stroke="#bf94f9" stroke-width="1.51"/><path d="M2165,-81L1963,-248L2018,-22Z" fill="#bf94f9" stroke="#bf94f9" stroke-width="1.51"/><path d="M2428,568L2265,334L2231,596Z" fill="#bf94f9" stroke="#bf94f9" stroke-width="1.51"/><path d="M103,-273L78,-61L348,-48Z" fill="#ffffff" stroke="#ffffff" stroke-width="1.51"/><path d="M-335,269L-128,468L-34,400Z" fill="#ffffff" stroke="#ffffff" stroke-width="1.51"/><path d="M2018,-22L1963,-248L1779,-120Z" fill="#bf94f9" stroke="#bf94f9" stroke-width="1.51"/><path d="M2165,-81L2018,-22L2138,157Z" fill="#bf94f9" stroke="#bf94f9" stroke-width="1.51"/><path d="M131,1164L77,1299L308,1376Z" fill="#bf94f9" stroke="#bf94f9" stroke-width="1.51"/><path d="M-73,1145L77,1299L131,1164Z" fill="#bf94f9" stroke="#bf94f9" stroke-width="1.51"/><path d="M-73,1145L131,1164L-31,898Z" fill="#cba5fa" stroke="#cba5fa" stroke-width="1.51"/><path d="M-34,400L-128,468L180,477Z" fill="#ffffff" stroke="#ffffff" stroke-width="1.51"/><path d="M-65,60L-34,400L65,184Z" fill="#ffffff" stroke="#ffffff" stroke-width="1.51"/><path d="M2017,1331L2180,1228L2055,1211Z" fill="#6320ee" stroke="#6320ee" stroke-width="1.51"/><path d="M2450,732L2428,568L2231,596Z" fill="#bf94f9" stroke="#bf94f9" stroke-width="1.51"/><path d="M2407,61L2165,-81L2138,157Z" fill="#bf94f9" stroke="#bf94f9" stroke-width="1.51"/><path d="M-318,962L-73,1145L-31,898Z" fill="#ffffff" stroke="#ffffff" stroke-width="1.51"/><path d="M-318,962L-31,898L-96,745Z" fill="#ffffff" stroke="#ffffff" stroke-width="1.51"/><path d="M78,-61L-65,60L65,184Z" fill="#ffffff" stroke="#ffffff" stroke-width="1.51"/><path d="M78,-61L-27,-123L-65,60Z" fill="#ffffff" stroke="#ffffff" stroke-width="1.51"/><path d="M413,-264L103,-273L348,-48Z" fill="#ffffff" stroke="#ffffff" stroke-width="1.51"/><path d="M527,-319L103,-273L413,-264Z" fill="#ffffff" stroke="#ffffff" stroke-width="1.51"/><path d="M2265,334L2407,61L2138,157Z" fill="#bf94f9" stroke="#bf94f9" stroke-width="1.51"/><path d="M2450,732L2130,730L2207,909Z" fill="#bf94f9" stroke="#bf94f9" stroke-width="1.51"/><path d="M-244,512L-235,712L-128,468Z" fill="#ffffff" stroke="#ffffff" stroke-width="1.51"/><path d="M-128,468L-235,712L-96,745Z" fill="#ffffff" stroke="#ffffff" stroke-width="1.51"/><path d="M-335,269L-244,512L-128,468Z" fill="#ffffff" stroke="#ffffff" stroke-width="1.51"/><path d="M103,-273L-27,-123L78,-61Z" fill="#ffffff" stroke="#ffffff" stroke-width="1.51"/><path d="M-327,177L-335,269L-34,400Z" fill="#ffffff" stroke="#ffffff" stroke-width="1.51"/><path d="M2471,897L2450,732L2207,909Z" fill="#bf94f9" stroke="#bf94f9" stroke-width="1.51"/><path d="M2205,1424L2328,1193L2180,1228Z" fill="#6320ee" stroke="#6320ee" stroke-width="1.51"/><path d="M2180,1228L2328,1193L2207,909Z" fill="#6320ee" stroke="#6320ee" stroke-width="1.51"/><path d="M2017,1331L2205,1424L2180,1228Z" fill="#6320ee" stroke="#6320ee" stroke-width="1.51"/><path d="M1632,1428L2205,1424L2017,1331Z" fill="#6320ee" stroke="#6320ee" stroke-width="1.51"/><path d="M77,1299L-76,1368L308,1376Z" fill="#bf94f9" stroke="#bf94f9" stroke-width="1.51"/><path d="M308,1376L-76,1368L620,1433Z" fill="#bf94f9" stroke="#bf94f9" stroke-width="1.51"/><path d="M-73,1145L-76,1368L77,1299Z" fill="#bf94f9" stroke="#bf94f9" stroke-width="1.51"/><path d="M-273,1223L-76,1368L-73,1145Z" fill="#bf94f9" stroke="#bf94f9" stroke-width="1.51"/><path d="M2328,1193L2471,897L2207,909Z" fill="#bf94f9" stroke="#bf94f9" stroke-width="1.51"/><path d="M2165,-81L2138,-338L1963,-248Z" fill="#bf94f9" stroke="#bf94f9" stroke-width="1.51"/><path d="M1963,-248L2138,-338L1763,-320Z" fill="#bf94f9" stroke="#bf94f9" stroke-width="1.51"/><path d="M1763,-320L2138,-338L1532,-331Z" fill="#faf5ff" stroke="#faf5ff" stroke-width="1.51"/><path d="M2471,-254L2138,-338L2165,-81Z" fill="#bf94f9" stroke="#bf94f9" stroke-width="1.51"/><path d="M103,-273L-38,-231L-27,-123Z" fill="#ffffff" stroke="#ffffff" stroke-width="1.51"/><path d="M-327,177L-34,400L-65,60Z" fill="#ffffff" stroke="#ffffff" stroke-width="1.51"/><path d="M2428,568L2470,262L2265,334Z" fill="#bf94f9" stroke="#bf94f9" stroke-width="1.51"/><path d="M2450,732L2470,262L2428,568Z" fill="#bf94f9" stroke="#bf94f9" stroke-width="1.51"/><path d="M2471,897L2470,262L2450,732Z" fill="#bf94f9" stroke="#bf94f9" stroke-width="1.51"/><path d="M2470,262L2407,61L2265,334Z" fill="#bf94f9" stroke="#bf94f9" stroke-width="1.51"/><path d="M-235,712L-318,962L-96,745Z" fill="#ffffff" stroke="#ffffff" stroke-width="1.51"/><path d="M-244,512L-318,962L-235,712Z" fill="#ffffff" stroke="#ffffff" stroke-width="1.51"/><path d="M-244,512L-335,269L-318,962Z" fill="#ffffff" stroke="#ffffff" stroke-width="1.51"/><path d="M-327,177L-65,60L-347,-44Z" fill="#ffffff" stroke="#ffffff" stroke-width="1.51"/><path d="M-347,-44L-65,60L-27,-123Z" fill="#ffffff" stroke="#ffffff" stroke-width="1.51"/><path d="M-318,962L-273,1223L-73,1145Z" fill="#bf94f9" stroke="#bf94f9" stroke-width="1.51"/><path d="M2205,1424L2398,1416L2328,1193Z" fill="#6320ee" stroke="#6320ee" stroke-width="1.51"/><path d="M2328,1193L2398,1416L2471,897Z" fill="#6320ee" stroke="#6320ee" stroke-width="1.51"/><path d="M2470,262L2454,-85L2407,61Z" fill="#bf94f9" stroke="#bf94f9" stroke-width="1.51"/><path d="M2407,61L2454,-85L2165,-81Z" fill="#bf94f9" stroke="#bf94f9" stroke-width="1.51"/><path d="M-327,177L-347,-44L-335,269Z" fill="#ffffff" stroke="#ffffff" stroke-width="1.51"/><path d="M-335,269L-345,1364L-318,962Z" fill="#ffffff" stroke="#ffffff" stroke-width="1.51"/><path d="M-302,-224L-347,-44L-27,-123Z" fill="#ffffff" stroke="#ffffff" stroke-width="1.51"/><path d="M-76,1368L-345,1364L620,1433Z" fill="#bf94f9" stroke="#bf94f9" stroke-width="1.51"/><path d="M-273,1223L-345,1364L-76,1368Z" fill="#bf94f9" stroke="#bf94f9" stroke-width="1.51"/><path d="M-318,962L-345,1364L-273,1223Z" fill="#bf94f9" stroke="#bf94f9" stroke-width="1.51"/><path d="M-347,-44L-345,1364L-335,269Z" fill="#ffffff" stroke="#ffffff" stroke-width="1.51"/><path d="M2454,-85L2471,-254L2165,-81Z" fill="#bf94f9" stroke="#bf94f9" stroke-width="1.51"/><path d="M2470,262L2471,-254L2454,-85Z" fill="#bf94f9" stroke="#bf94f9" stroke-width="1.51"/><path d="M2471,897L2471,-254L2470,262Z" fill="#bf94f9" stroke="#bf94f9" stroke-width="1.51"/><path d="M-38,-231L-302,-224L-27,-123Z" fill="#ffffff" stroke="#ffffff" stroke-width="1.51"/><path d="M103,-273L-302,-224L-38,-231Z" fill="#ffffff" stroke="#ffffff" stroke-width="1.51"/></svg>