<svg xmlns="http://www.w3.org/2000/svg" width="1920" height="1080"><path d="M1011,592L875,456L766,793Z" fill="#ffffff" stroke="#ffffff" stroke-width="1.51"/><path d="M766,793L1059,786L1011,592Z" fill="#ffffff" stroke="#ffffff" stroke-width="1.51"/><path d="M875,456L504,543L766,793Z" fill="#ffffff" stroke="#ffffff" stroke-width="1.51"/><path d="M875,456L485,255L504,543Z" fill="#ffffff" stroke="#ffffff" stroke-width="1.51"/><path d="M1010,188L848,258L875,456Z" fill="#ffffff" stroke="#ffffff" stroke-width="1.51"/><path d="M504,543L439,885L766,793Z" fill="#ffffff" stroke="#ffffff" stroke-width="1.51"/><path d="M766,793L824,1166L1059,786Z" fill="#e3ccfd" stroke="#e3ccfd" stroke-width="1.51"/><path d="M1448,591L1010,188L1011,592Z" fill="#ffffff" stroke="#ffffff" stroke-width="1.51"/><path d="M1011,592L1010,188L875,456Z" fill="#ffffff" stroke="#ffffff" stroke-width="1.51"/><path d="M476,-58L485,255L848,258Z" fill="#ffffff" stroke="#ffffff" stroke-width="1.51"/><path d="M848,258L485,255L875,456Z" fill="#ffffff" stroke="#ffffff" stroke-width="1.51"/><path d="M504,543L303,563L439,885Z" fill="#ffffff" stroke="#ffffff" stroke-width="1.51"/><path d="M439,885L824,1166L766,793Z" fill="#cfabfb" stroke="#cfabfb" stroke-width="1.51"/><path d="M485,255L303,563L504,543Z" fill="#ffffff" stroke="#ffffff" stroke-width="1.51"/><path d="M1059,786L1448,591L1011,592Z" fill="#ffffff" stroke="#ffffff" stroke-width="1.51"/><path d="M824,1166L1124,1144L1059,786Z" fill="#bf94f9" stroke="#bf94f9" stroke-width="1.51"/><path d="M1520,864L1448,591L1059,786Z" fill="#ffffff" stroke="#ffffff" stroke-width="1.51"/><path d="M1124,1144L1323,1087L1059,786Z" fill="#bf94f9" stroke="#bf94f9" stroke-width="1.51"/><path d="M439,885L398,1224L824,1166Z" fill="#bf94f9" stroke="#bf94f9" stroke-width="1.51"/><path d="M303,563L140,749L439,885Z" fill="#ffffff" stroke="#ffffff" stroke-width="1.51"/><path d="M-44,502L140,749L303,563Z" fill="#ffffff" stroke="#ffffff" stroke-width="1.51"/><path d="M1513,191L1187,7L1010,188Z" fill="#ffffff" stroke="#ffffff" stroke-width="1.51"/><path d="M1010,188L868,-102L848,258Z" fill="#ffffff" stroke="#ffffff" stroke-width="1.51"/><path d="M1323,1087L1520,864L1059,786Z" fill="#e4cffd" stroke="#e4cffd" stroke-width="1.51"/><path d="M1187,7L868,-102L1010,188Z" fill="#ffffff" stroke="#ffffff" stroke-width="1.51"/><path d="M105,1125L398,1224L439,885Z" fill="#bf94f9" stroke="#bf94f9" stroke-width="1.51"/><path d="M824,1166L893,1468L1124,1144Z" fill="#bf94f9" stroke="#bf94f9" stroke-width="1.51"/><path d="M485,255L227,184L303,563Z" fill="#ffffff" stroke="#ffffff" stroke-width="1.51"/><path d="M476,-58L227,184L485,255Z" fill="#ffffff" stroke="#ffffff" stroke-width="1.51"/><path d="M868,-102L476,-58L848,258Z" fill="#ffffff" stroke="#ffffff" stroke-width="1.51"/><path d="M1622,240L1513,191L1448,591Z" fill="#ffffff" stroke="#ffffff" stroke-width="1.51"/><path d="M1448,591L1513,191L1010,188Z" fill="#ffffff" stroke="#ffffff" stroke-width="1.51"/><path d="M398,1224L556,1401L824,1166Z" fill="#bf94f9" stroke="#bf94f9" stroke-width="1.51"/><path d="M1124,1144L1211,1462L1323,1087Z" fill="#bf94f9" stroke="#bf94f9" stroke-width="1.51"/><path d="M556,1401L893,1468L824,1166Z" fill="#bf94f9" stroke="#bf94f9" stroke-width="1.51"/><path d="M1513,191L1352,-40L1187,7Z" fill="#ffffff" stroke="#ffffff" stroke-width="1.51"/><path d="M1215,-409L753,-331L868,-102Z" fill="#ffffff" stroke="#ffffff" stroke-width="1.51"/><path d="M140,749L105,1125L439,885Z" fill="#e0c8fd" stroke="#e0c8fd" stroke-width="1.51"/><path d="M398,1224L244,1401L556,1401Z" fill="#bf94f9" stroke="#bf94f9" stroke-width="1.51"/><path d="M-44,502L-2,802L140,749Z" fill="#ffffff" stroke="#ffffff" stroke-width="1.51"/><path d="M1513,191L1765,-104L1352,-40Z" fill="#fdfbff" stroke="#fdfbff" stroke-width="1.51"/><path d="M1773,535L1622,240L1448,591Z" fill="#e7d3fe" stroke="#e7d3fe" stroke-width="1.51"/><path d="M-2,802L105,1125L140,749Z" fill="#f0e3fe" stroke="#f0e3fe" stroke-width="1.51"/><path d="M227,184L-44,502L303,563Z" fill="#ffffff" stroke="#ffffff" stroke-width="1.51"/><path d="M893,1468L1211,1462L1124,1144Z" fill="#bf94f9" stroke="#bf94f9" stroke-width="1.51"/><path d="M1323,1087L1707,1072L1520,864Z" fill="#bf94f9" stroke="#bf94f9" stroke-width="1.51"/><path d="M1520,864L1773,535L1448,591Z" fill="#f1e6fe" stroke="#f1e6fe" stroke-width="1.51"/><path d="M1792,845L1773,535L1520,864Z" fill="#cba6fa" stroke="#cba6fa" stroke-width="1.51"/><path d="M868,-102L753,-331L476,-58Z" fill="#ffffff" stroke="#ffffff" stroke-width="1.51"/><path d="M476,-58L176,-159L227,184Z" fill="#ffffff" stroke="#ffffff" stroke-width="1.51"/><path d="M1215,-409L868,-102L1187,7Z" fill="#ffffff" stroke="#ffffff" stroke-width="1.51"/><path d="M556,1401L856,1807L893,1468Z" fill="#bf94f9" stroke="#bf94f9" stroke-width="1.51"/><path d="M105,1125L244,1401L398,1224Z" fill="#bf94f9" stroke="#bf94f9" stroke-width="1.51"/><path d="M1704,1429L1707,1072L1323,1087Z" fill="#af7df7" stroke="#af7df7" stroke-width="1.51"/><path d="M1707,1072L1792,845L1520,864Z" fill="#a874f7" stroke="#a874f7" stroke-width="1.51"/><path d="M192,-292L176,-159L476,-58Z" fill="#ffffff" stroke="#ffffff" stroke-width="1.51"/><path d="M227,184L-109,138L-44,502Z" fill="#ffffff" stroke="#ffffff" stroke-width="1.51"/><path d="M176,-159L-109,138L227,184Z" fill="#ffffff" stroke="#ffffff" stroke-width="1.51"/><path d="M-426,769L-135,1163L-2,802Z" fill="#e5d0fd" stroke="#e5d0fd" stroke-width="1.51"/><path d="M753,-331L540,-404L476,-58Z" fill="#ffffff" stroke="#ffffff" stroke-width="1.51"/><path d="M1186,1787L1444,1521L1211,1462Z" fill="#bf94f9" stroke="#bf94f9" stroke-width="1.51"/><path d="M1211,1462L1444,1521L1323,1087Z" fill="#bf94f9" stroke="#bf94f9" stroke-width="1.51"/><path d="M753,-331L1215,-409L540,-404Z" fill="#ffffff" stroke="#ffffff" stroke-width="1.51"/><path d="M1352,-40L1215,-409L1187,7Z" fill="#ffffff" stroke="#ffffff" stroke-width="1.51"/><path d="M1319,-437L1215,-409L1352,-40Z" fill="#ffffff" stroke="#ffffff" stroke-width="1.51"/><path d="M105,1125L-81,1455L244,1401Z" fill="#bf94f9" stroke="#bf94f9" stroke-width="1.51"/><path d="M-2,802L-135,1163L105,1125Z" fill="#bf94f9" stroke="#bf94f9" stroke-width="1.51"/><path d="M-306,539L-2,802L-44,502Z" fill="#ffffff" stroke="#ffffff" stroke-width="1.51"/><path d="M540,-404L192,-292L476,-58Z" fill="#ffffff" stroke="#ffffff" stroke-width="1.51"/><path d="M176,-159L-61,-163L-109,138Z" fill="#ffffff" stroke="#ffffff" stroke-width="1.51"/><path d="M1792,845L1963,599L1773,535Z" fill="#bf94f9" stroke="#bf94f9" stroke-width="1.51"/><path d="M2015,143L1943,15L1622,240Z" fill="#bf94f9" stroke="#bf94f9" stroke-width="1.51"/><path d="M1663,-311L1319,-437L1352,-40Z" fill="#ffffff" stroke="#ffffff" stroke-width="1.51"/><path d="M1986,830L1963,599L1792,845Z" fill="#bf94f9" stroke="#bf94f9" stroke-width="1.51"/><path d="M-109,138L-306,539L-44,502Z" fill="#ffffff" stroke="#ffffff" stroke-width="1.51"/><path d="M2031,1040L1792,845L1707,1072Z" fill="#6320ee" stroke="#6320ee" stroke-width="1.51"/><path d="M2031,1040L1986,830L1792,845Z" fill="#a26bf5" stroke="#a26bf5" stroke-width="1.51"/><path d="M244,1401L413,1717L556,1401Z" fill="#bf94f9" stroke="#bf94f9" stroke-width="1.51"/><path d="M893,1468L1186,1787L1211,1462Z" fill="#bf94f9" stroke="#bf94f9" stroke-width="1.51"/><path d="M108,1781L413,1717L244,1401Z" fill="#bf94f9" stroke="#bf94f9" stroke-width="1.51"/><path d="M1215,-409L1319,-437L540,-404Z" fill="#ffffff" stroke="#ffffff" stroke-width="1.51"/><path d="M1765,-104L1513,191L1622,240Z" fill="#e1c8fd" stroke="#e1c8fd" stroke-width="1.51"/><path d="M413,1717L856,1807L556,1401Z" fill="#bf94f9" stroke="#bf94f9" stroke-width="1.51"/><path d="M1444,1521L1704,1429L1323,1087Z" fill="#bf94f9" stroke="#bf94f9" stroke-width="1.51"/><path d="M1612,1740L1704,1429L1444,1521Z" fill="#ab78f7" stroke="#ab78f7" stroke-width="1.51"/><path d="M1943,15L1765,-104L1622,240Z" fill="#bf94f9" stroke="#bf94f9" stroke-width="1.51"/><path d="M192,-292L-61,-163L176,-159Z" fill="#ffffff" stroke="#ffffff" stroke-width="1.51"/><path d="M-109,138L-409,228L-306,539Z" fill="#ffffff" stroke="#ffffff" stroke-width="1.51"/><path d="M856,1807L1186,1787L893,1468Z" fill="#bf94f9" stroke="#bf94f9" stroke-width="1.51"/><path d="M-510,1509L-81,1455L-135,1163Z" fill="#bf94f9" stroke="#bf94f9" stroke-width="1.51"/><path d="M-135,1163L-81,1455L105,1125Z" fill="#bf94f9" stroke="#bf94f9" stroke-width="1.51"/><path d="M1765,-104L1663,-311L1352,-40Z" fill="#eedffe" stroke="#eedffe" stroke-width="1.51"/><path d="M1992,1351L2031,1040L1707,1072Z" fill="#6320ee" stroke="#6320ee" stroke-width="1.51"/><path d="M2248,-47L2015,143L2346,144Z" fill="#bf94f9" stroke="#bf94f9" stroke-width="1.51"/><path d="M1765,-104L1946,-276L1663,-311Z" fill="#bf94f9" stroke="#bf94f9" stroke-width="1.51"/><path d="M2015,143L1622,240L1773,535Z" fill="#bf94f9" stroke="#bf94f9" stroke-width="1.51"/><path d="M2015,143L1773,535L1963,599Z" fill="#bf94f9" stroke="#bf94f9" stroke-width="1.51"/><path d="M-306,539L-426,769L-2,802Z" fill="#ffffff" stroke="#ffffff" stroke-width="1.51"/><path d="M-409,228L-426,769L-306,539Z" fill="#ffffff" stroke="#ffffff" stroke-width="1.51"/><path d="M2409,519L1963,599L1986,830Z" fill="#bf94f9" stroke="#bf94f9" stroke-width="1.51"/><path d="M-457,42L-409,228L-109,138Z" fill="#ffffff" stroke="#ffffff" stroke-width="1.51"/><path d="M1474,1855L1612,1740L1444,1521Z" fill="#bf94f9" stroke="#bf94f9" stroke-width="1.51"/><path d="M1704,1429L1992,1351L1707,1072Z" fill="#6320ee" stroke="#6320ee" stroke-width="1.51"/><path d="M2070,1664L1992,1351L1704,1429Z" fill="#6320ee" stroke="#6320ee" stroke-width="1.51"/><path d="M-81,1455L108,1781L244,1401Z" fill="#bf94f9" stroke="#bf94f9" stroke-width="1.51"/><path d="M413,1717L108,1781L856,1807Z" fill="#bf94f9" stroke="#bf94f9" stroke-width="1.51"/><path d="M-106,1798L1474,1855L856,1807Z" fill="#bf94f9" stroke="#bf94f9" stroke-width="1.51"/><path d="M856,1807L1474,1855L1186,1787Z" fill="#bf94f9" stroke="#bf94f9" stroke-width="1.51"/><path d="M1186,1787L1474,1855L1444,1521Z" fill="#bf94f9" stroke="#bf94f9" stroke-width="1.51"/><path d="M-61,-163L-457,42L-109,138Z" fill="#ffffff" stroke="#ffffff" stroke-width="1.51"/><path d="M192,-292L-149,-362L-61,-163Z" fill="#ffffff" stroke="#ffffff" stroke-width="1.51"/><path d="M540,-404L-149,-362L192,-292Z" fill="#ffffff" stroke="#ffffff" stroke-width="1.51"/><path d="M-409,228L-457,42L-426,769Z" fill="#ffffff" stroke="#ffffff" stroke-width="1.51"/><path d="M-149,-362L-457,42L-61,-163Z" fill="#ffffff" stroke="#ffffff" stroke-width="1.51"/><path d="M2248,-47L1946,-276L1943,15Z" fill="#bf94f9" stroke="#bf94f9" stroke-width="1.51"/><path d="M1943,15L1946,-276L1765,-104Z" fill="#bf94f9" stroke="#bf94f9" stroke-width="1.51"/><path d="M1663,-311L1946,-276L1319,-437Z" fill="#ddc3fc" stroke="#ddc3fc" stroke-width="1.51"/><path d="M-426,769L-508,1179L-135,1163Z" fill="#bf94f9" stroke="#bf94f9" stroke-width="1.51"/><path d="M-81,1455L-106,1798L108,1781Z" fill="#bf94f9" stroke="#bf94f9" stroke-width="1.51"/><path d="M-457,42L-508,1179L-426,769Z" fill="#ffffff" stroke="#ffffff" stroke-width="1.51"/><path d="M108,1781L-106,1798L856,1807Z" fill="#bf94f9" stroke="#bf94f9" stroke-width="1.51"/><path d="M-462,1669L-106,1798L-81,1455Z" fill="#bf94f9" stroke="#bf94f9" stroke-width="1.51"/><path d="M2316,1182L2331,950L2031,1040Z" fill="#6320ee" stroke="#6320ee" stroke-width="1.51"/><path d="M2031,1040L2331,950L1986,830Z" fill="#8448f2" stroke="#8448f2" stroke-width="1.51"/><path d="M2015,143L2248,-47L1943,15Z" fill="#bf94f9" stroke="#bf94f9" stroke-width="1.51"/><path d="M2409,519L2015,143L1963,599Z" fill="#bf94f9" stroke="#bf94f9" stroke-width="1.51"/><path d="M2331,950L2409,519L1986,830Z" fill="#bf94f9" stroke="#bf94f9" stroke-width="1.51"/><path d="M1992,1351L2316,1182L2031,1040Z" fill="#6320ee" stroke="#6320ee" stroke-width="1.51"/><path d="M2331,950L2316,1182L2409,519Z" fill="#b181f8" stroke="#b181f8" stroke-width="1.51"/><path d="M2256,1479L2316,1182L1992,1351Z" fill="#6320ee" stroke="#6320ee" stroke-width="1.51"/><path d="M2070,1664L1704,1429L1612,1740Z" fill="#6320ee" stroke="#6320ee" stroke-width="1.51"/><path d="M2409,519L2346,144L2015,143Z" fill="#bf94f9" stroke="#bf94f9" stroke-width="1.51"/><path d="M-508,1179L-510,1509L-135,1163Z" fill="#bf94f9" stroke="#bf94f9" stroke-width="1.51"/><path d="M1474,1855L2070,1664L1612,1740Z" fill="#6928ef" stroke="#6928ef" stroke-width="1.51"/><path d="M2070,1664L2256,1479L1992,1351Z" fill="#6320ee" stroke="#6320ee" stroke-width="1.51"/><path d="M-510,1509L-462,1669L-81,1455Z" fill="#bf94f9" stroke="#bf94f9" stroke-width="1.51"/><path d="M-149,-362L-460,-426L-457,42Z" fill="#ffffff" stroke="#ffffff" stroke-width="1.51"/><path d="M-457,42L-460,-426L-508,1179Z" fill="#ffffff" stroke="#ffffff" stroke-width="1.51"/><path d="M540,-404L-460,-426L-149,-362Z" fill="#ffffff" stroke="#ffffff" stroke-width="1.51"/><path d="M1319,-437L-460,-426L540,-404Z" fill="#ffffff" stroke="#ffffff" stroke-width="1.51"/><path d="M2346,144L2383,-282L2248,-47Z" fill="#bf94f9" stroke="#bf94f9" stroke-width="1.51"/><path d="M2248,-47L2383,-282L1946,-276Z" fill="#bf94f9" stroke="#bf94f9" stroke-width="1.51"/><path d="M1946,-276L2383,-282L1319,-437Z" fill="#bf94f9" stroke="#bf94f9" stroke-width="1.51"/><path d="M2409,519L2383,-282L2346,144Z" fill="#bf94f9" stroke="#bf94f9" stroke-width="1.51"/><path d="M2070,1664L2275,1708L2256,1479Z" fill="#6320ee" stroke="#6320ee" stroke-width="1.51"/><path d="M2256,1479L2275,1708L2316,1182Z" fill="#6320ee" stroke="#6320ee" stroke-width="1.51"/><path d="M2316,1182L2275,1708L2409,519Z" fill="#6320ee" stroke="#6320ee" stroke-width="1.51"/><path d="M1474,1855L2275,1708L2070,1664Z" fill="#6320ee" stroke="#6320ee" stroke-width="1.51"/></svg>